<svg xmlns="http://www.w3.org/2000/svg" width="149" height="25" viewBox="0 0 149 25" fill="none">
<path d="M41.2908 20.7421C39.5248 20.7486 37.8256 20.0668 36.5515 18.8407C35.2553 17.5849 34.5019 15.8692 34.4541 14.0627C34.4336 13.1678 34.5947 12.2781 34.9271 11.4474C35.2595 10.6166 35.7567 9.8622 36.3884 9.2297C37.6409 7.9312 39.3533 7.18013 41.1545 7.1394C42.0497 7.12212 42.9395 7.28365 43.7718 7.61459C44.6041 7.94552 45.3621 8.43923 46.0022 9.06695C46.1577 9.21164 46.283 9.38608 46.3701 9.57999C46.4573 9.7739 46.5046 9.98334 46.5097 10.196C46.5148 10.4086 46.4772 10.6201 46.3995 10.818C46.3217 11.0158 46.2053 11.1961 46.057 11.3481C45.7564 11.6618 45.3445 11.8435 44.9108 11.8537C44.477 11.8639 44.0567 11.7016 43.7418 11.4024C43.059 10.7517 42.1513 10.3916 41.2093 10.3978C40.743 10.4025 40.2821 10.5 39.8537 10.6846C39.4253 10.8692 39.0377 11.1373 38.7134 11.4732C38.3891 11.8091 38.1345 12.2063 37.9645 12.6416C37.7944 13.0769 37.7126 13.5417 37.7231 14.0091C37.7507 14.9443 38.142 15.8315 38.8138 16.4809C39.4857 17.1303 40.3844 17.4903 41.3176 17.4838C42.2069 17.4784 43.062 17.1394 43.7144 16.5334C44.033 16.2568 44.4463 16.1152 44.8671 16.1386C45.2879 16.1619 45.6834 16.3484 45.9696 16.6585C46.2558 16.9687 46.4102 17.3783 46.4008 17.8007C46.3913 18.2232 46.2185 18.6254 45.9187 18.9224C44.6875 20.068 43.0773 20.7164 41.3978 20.7428H41.2889L41.2908 20.7421ZM60.8172 13.3293C60.8097 12.2829 60.5352 11.2558 60.0194 10.3461C59.5036 9.43639 58.7642 8.67435 57.8712 8.13269C56.9782 7.59102 55.9611 7.28778 54.918 7.2519C53.8748 7.21601 52.8405 7.44868 51.9125 7.9277V1.95416C51.9095 1.51407 51.7326 1.09301 51.4213 0.782753C51.11 0.472497 50.6893 0.298203 50.2503 0.297859C49.813 0.303024 49.3947 0.478915 49.0846 0.788177C48.7745 1.09744 48.5969 1.51571 48.5894 1.95416V19.276C48.5982 19.7115 48.7772 20.1261 49.0878 20.4306C49.3984 20.7351 49.8159 20.9052 50.2503 20.9042C50.4662 20.9071 50.6807 20.8673 50.8812 20.787C51.0816 20.7066 51.2643 20.5874 51.4187 20.4361C51.5731 20.2849 51.696 20.1045 51.7808 19.9054C51.8655 19.7064 51.9105 19.4925 51.9125 19.276V13.3293C51.9125 12.5832 52.2077 11.8677 52.7339 11.3402C53.26 10.8127 53.9736 10.5163 54.7177 10.5163C55.4618 10.5163 56.1753 10.8127 56.7015 11.3402C57.2277 11.8677 57.5235 12.5832 57.5235 13.3293V19.276C57.5322 19.7084 57.7099 20.1201 58.018 20.4228C58.326 20.7255 58.74 20.895 59.1713 20.895C59.6027 20.895 60.0167 20.7255 60.3247 20.4228C60.6328 20.1201 60.8105 19.7084 60.8192 19.276L60.8172 13.3293ZM74.7888 7.24857C74.5904 7.24769 74.3943 7.28792 74.2121 7.36672C74.0299 7.44552 73.8655 7.5612 73.73 7.70651C73.5945 7.85182 73.4909 8.02363 73.4247 8.21117C73.3585 8.39871 73.3316 8.59794 73.3458 8.79637V8.93032C72.1857 7.92917 70.7097 7.37145 69.1792 7.35573C68.3148 7.34697 67.4569 7.51009 66.6558 7.83566C65.8548 8.16123 65.1265 8.6428 64.5122 9.2525C63.8979 9.8622 63.4098 10.5879 63.077 11.3878C62.7442 12.1876 62.5734 13.0457 62.5734 13.9123C62.5734 14.7789 62.7442 15.637 63.077 16.4368C63.4098 17.2366 63.8979 17.9624 64.5122 18.5721C65.1265 19.1818 65.8548 19.6633 66.6558 19.9889C67.4569 20.3145 68.3148 20.4776 69.1792 20.4688C70.7176 20.4687 72.2018 19.8981 73.3458 18.8668V19.1923C73.3316 19.3908 73.3585 19.59 73.4247 19.7776C73.4909 19.9652 73.5945 20.137 73.73 20.2824C73.8655 20.4278 74.0299 20.5435 74.2121 20.6224C74.3943 20.7013 74.5903 20.7416 74.7888 20.7408C74.9942 20.7441 75.1982 20.7065 75.389 20.6303C75.5798 20.554 75.7536 20.4407 75.9004 20.2967C76.0472 20.1527 76.1646 19.981 76.2449 19.7914C76.3251 19.6018 76.3669 19.3982 76.3681 19.1923V8.79637C76.3669 8.59046 76.3251 8.38682 76.2449 8.19726C76.1646 8.0077 76.0479 7.83597 75.9011 7.69203C75.7542 7.54808 75.5798 7.43476 75.389 7.35864C75.1981 7.28253 74.9941 7.24511 74.7888 7.24857ZM69.1779 17.2949C68.5122 17.2877 67.8633 17.0831 67.3134 16.7069C66.7636 16.3306 66.3375 15.7995 66.0883 15.1806C65.8391 14.5617 65.7783 13.8827 65.9135 13.2292C66.0487 12.5756 66.3735 11.9769 66.8476 11.5084C67.3218 11.0399 67.9239 10.7226 68.5777 10.5967C69.2314 10.4707 69.9075 10.5416 70.5211 10.8005C71.1347 11.0593 71.6582 11.4946 72.0254 12.0513C72.3926 12.608 72.5871 13.2613 72.5845 13.9287C72.5737 14.8257 72.2104 15.6822 71.5733 16.3122C70.9363 16.9421 70.0772 17.2945 69.1824 17.2929L69.1779 17.2949ZM84.5657 17.4851C84.3753 17.4851 84.1292 17.5126 83.9936 17.3773C83.8025 17.2145 83.8599 16.8883 83.8024 16.6707V10.2082H84.7027C85.1335 10.2082 85.5462 10.0366 85.8508 9.73124C86.1554 9.42583 86.3264 9.01161 86.3264 8.57971C86.3264 8.1478 86.1554 7.73358 85.8508 7.42818C85.5462 7.12278 85.1335 6.9512 84.7027 6.9512H83.8024V1.76395C83.8024 1.32947 83.6307 0.91278 83.3242 0.605555C83.0178 0.298329 82.6023 0.125732 82.1689 0.125732C81.7356 0.125732 81.3194 0.298329 81.0129 0.605555C80.7065 0.91278 80.5348 1.32947 80.5348 1.76395V6.95053H79.3638C78.933 6.95053 78.5196 7.12211 78.215 7.42751C77.9104 7.73291 77.7394 8.14713 77.7394 8.57904C77.7394 9.01095 77.9104 9.42516 78.215 9.73057C78.5196 10.036 78.933 10.2075 79.3638 10.2075H80.5348V17.0498C80.5352 17.9654 80.8755 18.8481 81.4898 19.5256C82.1041 20.2032 82.9481 20.6271 83.8572 20.7147C84.0927 20.7376 84.3297 20.7467 84.5663 20.7421C84.7807 20.7442 84.9934 20.7036 85.1919 20.6226C85.3905 20.5416 85.571 20.4219 85.723 20.2703C85.8749 20.1188 85.9954 19.9384 86.0772 19.7398C86.159 19.5412 86.2002 19.3282 86.1992 19.1133C86.1969 18.6804 86.0238 18.2661 85.7177 17.9607C85.4117 17.6554 84.9981 17.4839 84.5663 17.4838L84.5657 17.4851ZM95.1045 7.0597C93.7426 7.06628 92.4106 7.46117 91.2641 8.19828V1.84633C91.2641 1.40821 91.091 0.988027 90.782 0.678227C90.473 0.368426 90.0539 0.194383 89.6169 0.194383C89.1799 0.194383 88.7608 0.368426 88.4518 0.678227C88.1428 0.988027 87.969 1.40821 87.969 1.84633V19.1159C87.9711 19.3324 88.0155 19.5462 88.1002 19.7453C88.1848 19.9444 88.3079 20.1248 88.4622 20.2761C88.6166 20.4274 88.7994 20.5467 88.9998 20.6271C89.2002 20.7075 89.4147 20.7475 89.6306 20.7448C89.9792 20.7432 90.3183 20.6326 90.6013 20.4286C90.8843 20.2245 91.0968 19.937 91.2093 19.6062C92.0954 20.2228 93.1138 20.6214 94.1821 20.7699C95.2504 20.9184 96.3391 20.8126 97.3591 20.461C98.379 20.1094 99.3019 19.5219 100.053 18.7461C100.805 17.9703 101.363 17.028 101.684 15.9955C102.004 14.963 102.078 13.8693 101.898 12.803C101.719 11.7367 101.292 10.7278 100.651 9.85789C100.01 8.98801 99.1741 8.28163 98.2104 7.79596C97.2467 7.31029 96.1824 7.05898 95.1039 7.06238L95.1045 7.0597ZM95.1045 17.5126C94.3984 17.5085 93.7097 17.2948 93.1246 16.8985C92.5395 16.5022 92.0847 15.9411 91.8173 15.2859C91.5499 14.6306 91.482 13.9107 91.6222 13.2169C91.7625 12.5231 92.1046 11.8864 92.6053 11.3873C93.1061 10.8881 93.743 10.5489 94.4359 10.4123C95.1287 10.2757 95.846 10.3478 96.498 10.6197C97.1499 10.8915 97.707 11.3509 98.0989 11.9398C98.4907 12.5287 98.6997 13.2208 98.6997 13.9287C98.6983 14.4003 98.6044 14.8671 98.4231 15.3022C98.2417 15.7374 97.9765 16.1325 97.6429 16.4649C97.3092 16.7974 96.9136 17.0607 96.4784 17.2397C96.0432 17.4188 95.5769 17.5101 95.1065 17.5085L95.1045 17.5126ZM105.753 4.88836C105.307 4.89431 104.876 4.72363 104.555 4.41339C104.234 4.10316 104.048 3.67841 104.037 3.23138V3.09743C104.037 2.64838 104.215 2.21773 104.532 1.9002C104.848 1.58268 105.278 1.40429 105.726 1.40429C106.174 1.40429 106.603 1.58268 106.92 1.9002C107.237 2.21773 107.415 2.64838 107.415 3.09743V3.23138C107.407 3.66955 107.229 4.08746 106.919 4.39652C106.61 4.70559 106.192 4.88152 105.755 4.88702L105.753 4.88836ZM105.753 20.8238C105.303 20.8286 104.869 20.654 104.547 20.3384C104.226 20.0228 104.042 19.592 104.037 19.1407V8.65974C104.037 8.2107 104.215 7.78004 104.532 7.46251C104.848 7.14499 105.278 6.9666 105.726 6.9666C106.174 6.9666 106.603 7.14499 106.92 7.46251C107.237 7.78004 107.415 8.2107 107.415 8.65974V19.1394C107.413 19.582 107.238 20.0061 106.928 20.3208C106.617 20.6355 106.196 20.8156 105.755 20.8225L105.753 20.8238ZM121.522 20.8787H111.502C111.184 20.8823 110.872 20.7914 110.605 20.6175C110.339 20.4436 110.13 20.1945 110.004 19.9016C109.874 19.6089 109.835 19.2834 109.893 18.9682C109.952 18.653 110.104 18.3631 110.331 18.1368L117.711 10.5076H111.502C111.071 10.5076 110.657 10.336 110.353 10.0305C110.048 9.72505 109.877 9.31075 109.877 8.87875C109.877 8.44675 110.048 8.03245 110.353 7.72699C110.657 7.42152 111.071 7.24991 111.502 7.24991H121.522C121.842 7.25171 122.155 7.3479 122.421 7.52652C122.688 7.70514 122.896 7.95831 123.02 8.25454C123.151 8.54245 123.19 8.86412 123.132 9.17526C123.073 9.4864 122.92 9.7717 122.693 9.99188L115.312 17.6472H121.525C121.957 17.6473 122.371 17.8188 122.677 18.1241C122.983 18.4294 123.156 18.8438 123.159 19.2767C123.157 19.4895 123.113 19.6999 123.029 19.8957C122.946 20.0915 122.825 20.2689 122.673 20.4176C122.521 20.5663 122.341 20.6835 122.144 20.7624C121.947 20.8413 121.736 20.8804 121.524 20.8774L121.522 20.8787ZM126.343 20.8238C126.211 20.8326 126.079 20.8115 125.956 20.7623C125.833 20.713 125.723 20.6368 125.634 20.5392C125.46 20.3204 125.373 20.0453 125.389 19.7663V19.1957C125.372 18.9202 125.459 18.6483 125.634 18.4348C125.725 18.3415 125.837 18.2693 125.959 18.223C126.081 18.1768 126.212 18.1576 126.343 18.1669H126.533C126.663 18.1577 126.794 18.1769 126.916 18.2231C127.038 18.2694 127.15 18.3416 127.242 18.4348C127.416 18.6485 127.503 18.9202 127.486 19.1957V19.7663C127.502 20.0452 127.415 20.3201 127.242 20.5392C127.152 20.6367 127.042 20.7129 126.919 20.7622C126.797 20.8115 126.664 20.8325 126.533 20.8238H126.343ZM132.633 20.0101C132.637 20.1179 132.618 20.2253 132.578 20.3255C132.538 20.4257 132.478 20.5167 132.402 20.5928C132.288 20.71 132.141 20.7903 131.981 20.8233C131.821 20.8563 131.654 20.8403 131.504 20.7776C131.353 20.7149 131.224 20.6083 131.134 20.4714C131.044 20.3346 130.997 20.1739 130.999 20.0101V7.51982C130.996 7.41185 131.015 7.30435 131.055 7.204C131.095 7.10365 131.154 7.01259 131.231 6.93646C131.39 6.78808 131.599 6.7056 131.817 6.7056C132.034 6.7056 132.243 6.78808 132.402 6.93646C132.479 7.01262 132.539 7.10371 132.579 7.20406C132.618 7.30441 132.637 7.41189 132.634 7.51982V20.0087L132.633 20.0101ZM131.816 4.88836C131.513 4.90705 131.213 4.81524 130.972 4.62983C130.869 4.53573 130.789 4.41981 130.737 4.29058C130.685 4.16134 130.663 4.02209 130.672 3.88305V3.61181C130.663 3.47157 130.687 3.33121 130.742 3.20175C130.796 3.0723 130.879 2.95727 130.986 2.8657C131.232 2.6809 131.536 2.58934 131.843 2.60717C132.569 2.60717 132.932 2.94205 132.933 3.61181V3.88305C132.942 4.02092 132.921 4.15913 132.871 4.28808C132.822 4.41703 132.745 4.53365 132.646 4.62983C132.412 4.81683 132.115 4.90904 131.816 4.88836ZM148.182 0.735878C148.29 0.732273 148.398 0.750837 148.498 0.790428C148.599 0.83002 148.69 0.889803 148.767 0.966093C148.843 1.04238 148.903 1.13357 148.943 1.23404C148.983 1.33451 149.003 1.44214 149 1.5503V20.0087C149 20.1163 148.978 20.2228 148.937 20.3222C148.896 20.4216 148.836 20.5119 148.76 20.5879C148.684 20.664 148.595 20.7243 148.495 20.7655C148.396 20.8067 148.29 20.8278 148.182 20.8278C148.075 20.8278 147.969 20.8067 147.87 20.7655C147.771 20.7243 147.681 20.664 147.605 20.5879C147.529 20.5119 147.469 20.4216 147.428 20.3222C147.387 20.2228 147.366 20.1163 147.366 20.0087V18.1073C146.88 18.9746 146.181 19.7037 145.337 20.2257C144.449 20.8019 143.412 21.1046 142.355 21.0964C141.202 21.1094 140.07 20.7834 139.1 20.1588C138.114 19.5181 137.319 18.622 136.799 17.5655C136.243 16.4098 135.954 15.1432 135.954 13.86C135.954 12.5769 136.243 11.3103 136.799 10.1546C137.319 9.09814 138.114 8.20215 139.1 7.56135C140.062 6.93955 141.183 6.61359 142.327 6.62369C143.371 6.6169 144.398 6.89471 145.296 7.42739C146.162 7.91783 146.878 8.63566 147.367 9.50364V1.54695C147.364 1.43873 147.383 1.33105 147.423 1.23053C147.463 1.13001 147.523 1.03879 147.6 0.962494C147.676 0.886193 147.768 0.826426 147.869 0.786877C147.969 0.747327 148.076 0.72883 148.184 0.732529L148.182 0.735878ZM142.518 19.5774C143.42 19.5896 144.306 19.3348 145.065 18.8447C145.833 18.3389 146.446 17.6295 146.835 16.7953C147.271 15.8751 147.49 14.8668 147.475 13.8483C147.489 12.8433 147.27 11.8486 146.835 10.9429C146.441 10.1114 145.829 9.40265 145.065 8.89215C144.304 8.40508 143.421 8.14627 142.519 8.14627C141.616 8.14627 140.732 8.40508 139.972 8.89215C139.207 9.40242 138.596 10.1112 138.202 10.9429C137.78 11.8578 137.562 12.8536 137.562 13.8614C137.562 14.8692 137.78 15.865 138.202 16.7798C138.596 17.611 139.207 18.3192 139.972 18.8286C140.727 19.3275 141.614 19.5876 142.519 19.5754L142.518 19.5774Z" fill="#808080"/>
<path fill-rule="evenodd" clip-rule="evenodd" d="M21.1554 7.23711C21.3992 6.99432 21.5928 6.70555 21.7249 6.38744C21.857 6.06932 21.925 5.72815 21.925 5.38357C21.925 5.03899 21.857 4.69781 21.7249 4.37969C21.5928 4.06158 21.3992 3.77281 21.1554 3.53002C19.4653 1.84455 17.3163 0.697197 14.9781 0.232003C12.64 -0.233191 10.2168 0.00450399 8.01292 0.915249C5.80901 1.82599 3.92257 3.3692 2.5904 5.35113C1.25824 7.33307 0.539723 9.66539 0.525062 12.0553C0.524393 13.3133 0.720962 14.5636 1.10757 15.7604C1.6333 17.4657 1.48821 19.308 0.702086 20.9095L0.224455 21.7293C0.0771492 21.9732 -0.00049204 22.2531 2.34636e-06 22.5383C0.00184933 22.8174 0.0772939 23.0911 0.218683 23.3316C0.360073 23.572 0.562377 23.7707 0.805075 23.9075C1.04777 24.0442 1.32223 24.1142 1.60061 24.1103C1.87899 24.1064 2.15138 24.0287 2.39016 23.8852L3.27394 23.3769C4.10094 22.9 5.90726 22.2858 7.1364 22.8035C9.41072 23.9545 11.9886 24.3591 14.5049 23.9599C17.0212 23.5607 19.3486 22.378 21.1574 20.5793C21.4011 20.3365 21.5946 20.0478 21.7267 19.7297C21.8587 19.4117 21.9266 19.0706 21.9266 18.7261C21.9266 18.3816 21.8587 18.0405 21.7267 17.7224C21.5946 17.4044 21.4011 17.1156 21.1574 16.8729C20.6637 16.3809 19.996 16.1047 19.3 16.1047C18.6039 16.1047 17.9362 16.3809 17.4425 16.8729C16.492 17.8257 15.281 18.4745 13.9627 18.7373C12.6443 19 11.2779 18.865 10.0361 18.3492C8.79433 17.8334 7.73298 16.96 6.98626 15.8395C6.23954 14.719 5.84098 13.4016 5.84098 12.054C5.84098 10.7064 6.23954 9.38899 6.98626 8.26846C7.73298 7.14793 8.79433 6.27455 10.0361 5.75876C11.2779 5.24297 12.6443 5.10792 13.9627 5.37071C15.281 5.6335 16.492 6.28231 17.4425 7.2351C17.9364 7.72659 18.6041 8.0024 19.3 8.0024C19.9958 8.0024 20.6635 7.72659 21.1574 7.2351L21.1554 7.23711ZM19.669 5.01219C19.7616 5.11204 19.8118 5.24403 19.8092 5.38031C19.8066 5.5166 19.7512 5.64653 19.6549 5.7427C19.5585 5.83887 19.4287 5.89377 19.2927 5.8958C19.1568 5.89783 19.0254 5.84685 18.9262 5.75361C17.6834 4.5085 16.1003 3.66077 14.377 3.3176C12.6538 2.97443 10.8677 3.15121 9.24466 3.82561C7.62159 4.50001 6.2344 5.64174 5.25844 7.10647C4.28247 8.5712 3.76157 10.2932 3.76157 12.0547C3.76157 13.8162 4.28247 15.5381 5.25844 17.0028C6.2344 18.4676 7.62159 19.6093 9.24466 20.2837C10.8677 20.9581 12.6538 21.1349 14.377 20.7917C16.1003 20.4485 17.6834 19.6008 18.9262 18.3557C19.0254 18.2625 19.1568 18.2115 19.2927 18.2135C19.4287 18.2155 19.5585 18.2704 19.6549 18.3666C19.7512 18.4628 19.8066 18.5927 19.8092 18.729C19.8118 18.8653 19.7616 18.9973 19.669 19.0971C18.2798 20.4898 16.5098 21.4382 14.583 21.8223C12.6561 22.2065 10.6589 22.0092 8.84392 21.2553C7.02892 20.5015 5.47763 19.225 4.38621 17.5872C3.29478 15.9495 2.71224 14.024 2.71224 12.0543C2.71224 10.0846 3.29478 8.15918 4.38621 6.52142C5.47763 4.88366 7.02892 3.60716 8.84392 2.85332C10.6589 2.09949 12.6561 1.90217 14.583 2.28632C16.5098 2.67048 18.2798 3.61885 19.669 5.01152V5.01219Z" fill="#066FC2"/>
</svg>