<svg xmlns="http://www.w3.org/2000/svg" width="168" height="40" viewBox="0 0 168 40" fill="none">
<path d="M32.377 7.49915V0H6.35106C3.14791 0 0.55127 2.60432 0.55127 5.81673V7.49915V14.2281V34.3967C0.55127 37.4913 3.05278 40 6.13846 40H35.441V7.49915H32.377ZM23.9069 33.533C22.3395 34.2265 21.5227 34.5247 19.5688 34.5247C17.3296 34.5247 15.6345 34.163 13.8538 33.2138C12.0727 32.2647 10.6737 30.9434 9.65613 29.2486C8.63818 27.5549 8.12965 25.636 8.12965 23.4927C8.12965 21.3496 8.63818 19.4312 9.65613 17.7366C10.6737 16.0427 12.0727 14.7207 13.8538 13.7717C15.6345 12.8226 17.6443 12.3479 19.8835 12.3479C21.5017 12.3479 22.9687 12.7994 24.5363 13.4931C26.1034 14.1872 27.0762 15.0033 28.3574 16.2207L24.6935 20.5263C23.3093 18.8527 21.2772 17.6184 19.8835 17.6634C18.724 17.7009 18.0018 17.8747 17.0963 18.3846C16.1905 18.8952 15.7517 19.6202 15.2533 20.5487C14.7543 21.4778 14.6465 22.2885 14.6465 23.4927C14.6465 24.6974 14.9565 25.639 15.4556 26.5674C15.9541 27.4966 16.64 28.0188 17.5458 28.5288C18.4513 29.0394 19.632 29.0551 20.3105 28.957C22.2871 28.6712 23.1877 27.9754 24.6935 26.5225L28.3799 30.3997C27.3419 31.7061 25.4741 32.8394 23.9069 33.533ZM28.7091 7.63221H6.17243C5.10495 7.63221 4.23953 6.76428 4.23953 5.69354C4.23953 4.62297 5.10495 3.75486 6.17243 3.75486H28.7091V7.63221Z" fill="#18BA62"/>
<path d="M51.6978 29.7706C50.4462 29.1033 49.4629 28.1753 48.748 26.9842C48.0326 25.7937 47.6754 24.4455 47.6754 22.939C47.6754 21.4334 48.0326 20.0851 48.748 18.8944C49.4629 17.7039 50.4462 16.775 51.6978 16.1081C52.9493 15.441 54.3613 15.1074 55.9348 15.1074C57.3079 15.1074 58.5449 15.3517 59.6463 15.8391C60.7476 16.327 61.6629 17.0298 62.3924 17.9476L59.6892 20.4005C58.7165 19.2243 57.5366 18.6362 56.1494 18.6362C55.3342 18.6362 54.6082 18.8157 53.9719 19.1741C53.3353 19.5328 52.842 20.0383 52.4917 20.6909C52.1411 21.3438 51.966 22.0928 51.966 22.9389C51.966 23.7858 52.1411 24.535 52.4917 25.1872C52.842 25.8405 53.3353 26.3458 53.9719 26.7041C54.6082 27.063 55.3342 27.2419 56.1494 27.2419C57.5366 27.2419 58.7165 26.6543 59.6892 25.4779L62.3924 27.9307C61.6629 28.8487 60.7476 29.5516 59.6463 30.0394C58.5449 30.5268 57.3079 30.7708 55.9348 30.7708C54.3613 30.771 52.9493 30.4375 51.6978 29.7706Z" fill="#18BA62"/>
<path d="M69.5892 19.0133C70.2542 18.7479 71.0159 18.6152 71.874 18.6152V22.2942C71.5019 22.2512 71.1946 22.23 70.9516 22.23C70.079 22.23 69.3961 22.4662 68.9026 22.9398C68.4093 23.4132 68.1625 24.1377 68.1625 25.113V30.4703H64.0864V18.8089H67.9694V20.2075C68.3841 19.6768 68.9239 19.2787 69.5892 19.0133Z" fill="#18BA62"/>
<path d="M85.2627 25.6723H76.8101C76.9817 26.2748 77.3141 26.7375 77.8076 27.0601C78.301 27.3827 78.9195 27.5443 79.6633 27.5443C80.2212 27.5443 80.7038 27.4654 81.1115 27.3076C81.5192 27.1497 81.9301 26.8919 82.3451 26.5332L84.4906 28.7707C83.3605 30.0333 81.7083 30.6643 79.5349 30.6643C78.176 30.6643 76.9819 30.4061 75.9522 29.8898C74.9222 29.3734 74.1247 28.6562 73.5601 27.7383C72.9949 26.8205 72.7125 25.7803 72.7125 24.6184C72.7125 23.4713 72.9877 22.442 73.5384 21.531C74.089 20.6202 74.8505 19.9065 75.8234 19.3902C76.7958 18.8739 77.8899 18.6157 79.1058 18.6157C80.2643 18.6157 81.3155 18.856 82.2594 19.3364C83.2033 19.8172 83.9506 20.5128 84.5013 21.4234C85.0517 22.3344 85.3272 23.4135 85.3272 24.6614C85.327 24.69 85.3056 25.0269 85.2627 25.6723ZM77.5502 22.0578C77.1282 22.4167 76.86 22.9044 76.7457 23.5206H81.5084C81.3938 22.9043 81.1256 22.4167 80.7038 22.0578C80.2818 21.6996 79.7563 21.5199 79.1271 21.5199C78.4975 21.5199 77.9718 21.6996 77.5502 22.0578Z" fill="#18BA62"/>
<path d="M99.5726 14.5059V30.4703H95.6894V29.3085C94.9313 30.2119 93.7941 30.6642 92.2785 30.6642C91.2198 30.6642 90.2546 30.4167 89.3824 29.9216C88.5098 29.4267 87.8196 28.7207 87.3119 27.8025C86.8041 26.8848 86.5504 25.8232 86.5504 24.6183C86.5504 23.4131 86.8041 22.3558 87.3119 21.4448C87.8196 20.5342 88.5098 19.8348 89.3824 19.3469C90.2546 18.8595 91.2198 18.6154 92.2785 18.6154C93.6655 18.6154 94.7382 19.0173 95.4963 19.8203V14.506H99.5726V14.5059ZM94.8744 26.6728C95.332 26.1777 95.561 25.493 95.561 24.6181C95.561 23.7575 95.3356 23.0831 94.8851 22.5957C94.4347 22.1083 93.8518 21.8642 93.1368 21.8642C92.4214 21.8642 91.8352 22.1081 91.3777 22.5957C90.9196 23.0833 90.691 23.7575 90.691 24.6181C90.691 25.493 90.9196 26.1777 91.3777 26.6728C91.8352 27.1677 92.4214 27.4152 93.1368 27.4152C93.8372 27.4152 94.4163 27.1677 94.8744 26.6728Z" fill="#18BA62"/>
<path d="M102.424 16.8934C101.966 16.4776 101.738 15.9613 101.738 15.3444C101.738 14.7279 101.966 14.2115 102.424 13.7953C102.882 13.3794 103.483 13.1714 104.226 13.1714C104.97 13.1714 105.571 13.3686 106.028 13.7632C106.486 14.1577 106.715 14.6632 106.715 15.2799C106.715 15.9253 106.486 16.4598 106.028 16.8827C105.571 17.3059 104.97 17.5175 104.226 17.5175C103.483 17.5175 102.882 17.3096 102.424 16.8934ZM102.188 18.8084H106.264V30.4699H102.188V18.8084Z" fill="#18BA62"/>
<path d="M122.655 24.0261C123.141 24.6646 123.384 25.4354 123.384 26.3392C123.384 27.6588 122.855 28.6772 121.797 29.3943C120.738 30.1118 119.208 30.4701 117.206 30.4701H109.096V15.4092H116.776C118.693 15.4092 120.152 15.7642 121.153 16.4742C122.154 17.1841 122.655 18.1417 122.655 19.3464C122.655 20.0639 122.479 20.7059 122.129 21.2722C121.778 21.839 121.282 22.2872 120.638 22.6169C121.496 22.9182 122.168 23.3882 122.655 24.0261ZM113.301 18.486V21.3907H116.219C117.649 21.3907 118.364 20.9029 118.364 19.9278C118.364 18.9666 117.649 18.486 116.219 18.486H113.301ZM119.093 25.8659C119.093 24.8474 118.35 24.3381 116.862 24.3381H113.301V27.3934H116.862C118.35 27.3934 119.093 26.8845 119.093 25.8659Z" fill="#606060"/>
<path d="M127.869 29.8891C126.868 29.3729 126.085 28.6558 125.52 27.7376C124.955 26.8198 124.672 25.7798 124.672 24.6181C124.672 23.4708 124.955 22.4379 125.52 21.5197C126.085 20.602 126.864 19.8884 127.858 19.3792C128.852 18.8701 129.979 18.6152 131.237 18.6152C132.495 18.6152 133.625 18.8701 134.627 19.3792C135.628 19.8884 136.407 20.5984 136.965 21.5092C137.523 22.42 137.802 23.4561 137.802 24.6181C137.802 25.7799 137.523 26.8198 136.965 27.7376C136.407 28.6558 135.628 29.3729 134.627 29.8891C133.625 30.4054 132.495 30.6638 131.237 30.6638C129.993 30.664 128.87 30.4054 127.869 29.8891ZM132.996 26.6728C133.454 26.1777 133.683 25.493 133.683 24.6181C133.683 23.7575 133.454 23.0831 132.996 22.5957C132.538 22.1081 131.952 21.8642 131.237 21.8642C130.522 21.8642 129.936 22.1081 129.478 22.5957C129.02 23.0833 128.791 23.7575 128.791 24.6181C128.791 25.493 129.02 26.1777 129.478 26.6728C129.936 27.1677 130.522 27.4152 131.237 27.4152C131.952 27.4152 132.538 27.1677 132.996 26.6728Z" fill="#606060"/>
<path d="M142.156 29.8891C141.155 29.3729 140.372 28.6558 139.807 27.7376C139.242 26.8198 138.959 25.7798 138.959 24.6181C138.959 23.4708 139.242 22.4379 139.807 21.5197C140.372 20.602 141.151 19.8884 142.145 19.3792C143.139 18.8701 144.265 18.6152 145.524 18.6152C146.782 18.6152 147.912 18.8701 148.914 19.3792C149.915 19.8884 150.694 20.5984 151.252 21.5092C151.81 22.42 152.089 23.4561 152.089 24.6181C152.089 25.7799 151.81 26.8198 151.252 27.7376C150.694 28.6558 149.915 29.3729 148.914 29.8891C147.912 30.4054 146.782 30.6638 145.524 30.6638C144.28 30.664 143.157 30.4054 142.156 29.8891ZM147.283 26.6728C147.741 26.1777 147.97 25.493 147.97 24.6181C147.97 23.7575 147.741 23.0831 147.283 22.5957C146.825 22.1081 146.239 21.8642 145.524 21.8642C144.809 21.8642 144.223 22.1081 143.765 22.5957C143.307 23.0833 143.078 23.7575 143.078 24.6181C143.078 25.493 143.307 26.1777 143.765 26.6728C144.223 27.1677 144.809 27.4152 145.524 27.4152C146.239 27.4152 146.825 27.1677 147.283 26.6728Z" fill="#606060"/>
<path d="M159.253 26.3825L158.052 27.6089V30.4705H153.976V14.5059H158.052V22.8753L162.214 18.8089H167.041L162.214 23.8006L167.449 30.4705H162.515L159.253 26.3825Z" fill="#606060"/>
</svg>