<?xml version="1.0" encoding="UTF-8"?>
<svg width="356px" height="78px" viewBox="0 0 356 78" version="1.1" xmlns="http://www.w3.org/2000/svg" xmlns:xlink="http://www.w3.org/1999/xlink">
    <!-- Generator: Sketch 60.1 (88133) - https://sketch.com -->
    <title>mm-logo-signature</title>
    <desc>Created with Sketch.</desc>
    <g id="#scratch" stroke="none" stroke-width="1" fill="none" fill-rule="evenodd">
        <g id="mm-logo-signature" transform="translate(-48.000000, -50.000000)">
            <g id="logo/mm/signature" transform="translate(48.000000, 50.000000)">
                <g id="micromentor_logo">
                    <path d="M225.1,67.1 C225.1,66.3 224.9,65.8 224.3,65.8 C222.9,65.8 220.9,69.2 220,72.9 C220.5,73.4 221,73.6 221.5,73.6 C223.7,73.6 225.1,69.5 225.1,67.1 Z M227.6,67.2 C227.6,70.7 225.1,74.4 221.6,74.4 C220.8,74.4 220.2,74.2 219.7,73.9 L217.6,74.4 L217.3,74.2 L219.9,61.9 L218.4,61.9 L218.5,61.4 L222.2,60.5 L222.5,60.7 L221.4,66 L220.6,68.9 L220.7,68.9 C221.9,66.2 223.5,64.5 225.4,64.5 C226.9,64.6 227.6,65.6 227.6,67.2 L227.6,67.2 Z M237.7,65.5 C237.7,67 234.6,72.2 233.1,74.3 C231.3,76.8 229.8,77.8 228.3,77.8 C227.2,77.8 226.6,77.2 226.6,76.5 C226.6,76.1 226.8,75.7 227.1,75.4 L227.6,75.7 C228.2,76.1 228.8,76.3 229.3,76.3 C230.4,76.3 231.4,75.5 232.4,74 C232.4,74 232.4,74 232.4,74 L230.8,74.5 L229.7,66.1 L228.4,66.1 L228.5,65.6 L232,64.7 L232.9,73.1 C234.2,70.9 235.5,68 235.5,66.7 C235.5,66.2 235.3,65.9 234.8,65.9 C234.7,65.9 234.6,65.9 234.4,65.9 L234.5,65.4 C235.2,65 236.1,64.6 236.7,64.6 C237.4,64.6 237.7,64.9 237.7,65.5 L237.7,65.5 Z M259.3,61.4 L259.2,61.9 C258,62.1 257.6,62.4 257.4,63.4 L255.8,72.2 C255.6,73.2 255.8,73.6 257,73.7 L256.9,74.2 L251.3,74.2 L251.4,73.7 C252.7,73.5 253.1,73.2 253.3,72.2 L255,63 L249,73.3 L248,73.3 L246.3,63.1 L244.1,72.2 C243.9,73.2 244.1,73.5 245.3,73.7 L245.2,74.2 L241.1,74.2 L241.2,73.7 C242.4,73.5 242.7,73.2 243,72.2 L245.2,63.4 C245.4,62.4 245.3,62.1 244.1,61.9 L244.2,61.4 L248.7,61.4 L250.1,69.4 L254.3,62.3 C254.5,62 254.7,61.5 254.8,61.3 C254.6,61.4 259.3,61.4 259.3,61.4 Z M261.1,69.5 C263.6,68.7 265,67.7 265,66.5 C265,65.8 264.6,65.4 263.9,65.4 C262.4,65.3 261.3,67.5 261.1,69.5 Z M266.1,71.2 L266.6,71.5 C265.2,73.3 263.4,74.4 261.8,74.4 C259.7,74.4 258.6,72.9 258.6,70.9 C258.6,68 260.9,64.6 264.6,64.6 C266.4,64.6 267.3,65.4 267.3,66.5 C267.3,68.3 264.7,69.3 261.2,70.2 L261.2,70.4 C261.2,72.2 262,73 263,73 C263.8,72.9 264.9,72.3 266.1,71.2 L266.1,71.2 Z M276.4,65.5 C276.4,66 276.1,66.7 275.7,67.2 L275.1,66.8 C274.8,66.6 274.5,66.5 274.3,66.5 C272.9,66.5 271.8,69.1 271.3,71.8 L271.3,71.8 L270.9,73.9 L268.8,74.2 L268.5,74 L270.3,65.7 L268.8,65.7 L268.9,65.2 L272.4,64.3 L272.7,64.5 L271.9,68.4 L272,68.4 C273,65.8 274.3,64.4 275.6,64.4 C276.1,64.6 276.4,65 276.4,65.5 L276.4,65.5 Z M276.4,70.9 C276.4,68 278.6,64.6 282.2,64.6 C284.1,64.6 285,65.6 285,66.6 C285,67.4 284.3,68.3 283.2,68.3 L283.2,67.6 C283.2,66 282.7,65.4 281.9,65.4 C280.2,65.4 279,68.3 279,70.5 C279,72.2 279.7,73 280.8,73 C281.7,73 282.7,72.4 283.8,71.3 L284.2,71.6 C282.7,73.5 281.1,74.5 279.5,74.5 C277.5,74.4 276.4,72.9 276.4,70.9 L276.4,70.9 Z M295.1,65.5 C295.1,67 292,72.2 290.5,74.3 C288.7,76.8 287.2,77.8 285.7,77.8 C284.6,77.8 284,77.2 284,76.5 C284,76.1 284.2,75.7 284.5,75.4 L285,75.7 C285.6,76.1 286.2,76.3 286.7,76.3 C287.8,76.3 288.8,75.5 289.8,74 C289.8,74 289.8,74 289.8,74 L288.2,74.5 L287.1,66.1 L286,66.1 L286.1,65.6 L289.6,64.7 L290.5,73.1 C291.8,70.9 293.1,68 293.1,66.7 C293.1,66.2 292.9,65.9 292.4,65.9 C292.3,65.9 292.2,65.9 292,65.9 L292.1,65.4 C292.8,65 293.7,64.6 294.3,64.6 C294.8,64.6 295.1,64.9 295.1,65.5 L295.1,65.5 Z M300.1,69.2 C300.1,65 303.2,61.2 307.5,61.2 C309.4,61.2 311.2,62 311.7,62.3 L311.1,65.3 L310.6,65.3 C310.4,63.1 309.1,62 307.5,62 C304.5,62 303.1,65.9 303.1,68.8 C303.1,71.6 304.3,72.9 306.4,72.9 C307.7,72.9 308.9,72.4 310,71.1 L310.5,71.4 C309.1,73.3 307.3,74.3 305.2,74.3 C302.2,74.4 300.1,72.6 300.1,69.2 L300.1,69.2 Z M318.9,67.7 C318.9,66.2 318.4,65.3 317.4,65.3 C315.5,65.3 314.3,68.8 314.3,71.2 C314.3,72.7 314.8,73.6 315.8,73.6 C317.7,73.6 318.9,70.1 318.9,67.7 L318.9,67.7 Z M311.8,70.6 C311.8,67.5 314.4,64.5 317.6,64.5 C319.8,64.5 321.3,65.8 321.3,68.2 C321.3,71.3 318.8,74.3 315.5,74.3 C313.4,74.4 311.8,73.1 311.8,70.6 L311.8,70.6 Z M330.6,65.5 C330.6,66 330.3,66.7 329.9,67.2 L329.3,66.8 C329,66.6 328.7,66.5 328.5,66.5 C327.1,66.5 326,69.1 325.5,71.8 L325.5,71.8 L325,74 L322.9,74.3 L322.6,74.1 L324.4,65.8 L322.9,65.8 L323,65.3 L326.5,64.4 L326.8,64.6 L326,68.5 L326.1,68.5 C327.1,65.9 328.4,64.5 329.7,64.5 C330.3,64.6 330.6,65 330.6,65.5 L330.6,65.5 Z M338.8,67.1 C338.8,66.3 338.6,65.8 338,65.8 C336.6,65.8 334.6,69.2 333.8,72.8 L333.8,72.9 C334.3,73.3 334.8,73.5 335.3,73.5 C337.4,73.6 338.8,69.5 338.8,67.1 L338.8,67.1 Z M341.3,67.2 C341.3,70.7 338.8,74.4 335.3,74.4 C334.6,74.4 334,74.3 333.6,74 L333.2,76 C333,76.9 333.3,77 334.2,77.2 L334.1,77.6 L329.1,77.8 L329.2,77.4 C330.3,77.3 330.6,76.9 330.8,76 L332.9,65.9 L331.4,65.9 L331.5,65.4 L335.1,64.5 L335.4,64.7 L334.5,68.9 L334.6,68.9 C335.8,66.2 337.4,64.5 339.3,64.5 C340.6,64.6 341.3,65.6 341.3,67.2 Z M341.7,72.3 C341.7,71.9 341.9,71.4 342.6,71.1 L343.1,71.9 C343.8,73 344.5,73.7 345.3,73.7 C345.9,73.7 346.6,73.3 346.6,72.4 C346.6,71.9 346.3,71.4 345.4,70.7 L344.8,70.2 C343.5,69.2 343,68.4 343,67.6 C343,65.8 344.7,64.6 346.8,64.6 C348.3,64.6 349.5,65.4 349.5,66.3 C349.5,66.8 349.3,67.2 348.7,67.4 L348.2,66.6 C347.7,65.9 347,65.3 346.3,65.3 C345.6,65.3 345.1,65.8 345.1,66.5 C345.1,67 345.4,67.4 346.4,68.2 L347,68.7 C348.2,69.7 348.7,70.4 348.7,71.3 C348.7,73.2 346.9,74.4 344.8,74.4 C343,74.4 341.7,73.4 341.7,72.3 L341.7,72.3 Z" id="Shape" fill="#4D525A"></path>
                    <path d="M127.2,21 L127.2,54 L121.1,54 L121.7,26.9 L114.5,54 L108.9,54 L101.7,26.9 L102.3,54 L96.2,54 L96.2,21 L105.3,21 L111.8,45.5 L118.2,21 L127.2,21 Z M133.2,54 L133.2,30.4 L139.2,30.4 L139.2,54 L133.2,54 Z M133.2,27.5 L133.2,21.8 L139.2,21.8 L139.2,27.5 L133.2,27.5 Z M159.9,38.7 C159.5,37.1 157.8,34.7 154.5,34.7 C151.2,34.7 148.6,37.3 148.6,42 C148.6,46.3 150.8,49.4 154.6,49.4 C158.2,49.4 159.6,46.7 160.3,44.8 L165.2,47.4 C163.3,52.5 158.6,54.8 154.5,54.8 C147.9,54.8 142.7,49.7 142.7,42.2 C142.7,35 147.9,29.6 154.7,29.6 C160.7,29.6 163.7,33.6 165,36.3 L159.9,38.7 L159.9,38.7 Z M173.4,30.3 L173.4,33.7 C174.1,32.5 175.7,29.7 181,29.8 L181,35.6 C179.8,35.6 177.6,35.7 175.9,37 C173.5,38.8 173.4,41.3 173.4,45.2 L173.4,54 L167.9,54 L167.9,30.3 C167.9,30.3 173.4,30.3 173.4,30.3 Z M194.3,54.7 C186.9,54.7 182,49.3 182,42.1 C182,34.9 187,29.6 194.1,29.6 C200.7,29.6 206.4,34.2 206.4,42.1 C206.3,49.4 201.4,54.7 194.3,54.7 L194.3,54.7 Z M194,34.7 C190.4,34.7 187.9,37.5 187.9,41.9 C187.9,46.8 190.9,49.5 194.3,49.5 C198.4,49.5 200.5,45.9 200.4,42 C200.3,38 198,34.7 194,34.7 Z M242.3,20.5 L242.3,54 L236.2,54 L236.8,26.5 L229.5,54 L223.8,54 L216.5,26.5 L217.1,54 L211,54 L211,20.5 L220.1,20.5 L226.7,45.3 L233.1,20.5 L242.3,20.5 L242.3,20.5 Z M271,48.7 C268.1,52.6 264.3,54.7 259.4,54.7 C253.2,54.7 247.2,50.8 247.2,42.1 C247.2,34.1 252.3,29.6 259,29.6 C265.3,29.6 267.9,33.3 268.4,34.1 C270.3,36.8 270.8,41 270.8,43.3 L253.2,43.3 C253.9,47 256.2,49.2 259.9,49.2 C263.8,49.2 265.4,46.9 266.1,45.9 L271,48.7 Z M264.5,39.1 C264,35.4 261.7,34.1 259.2,34.1 C256.2,34.1 254.1,35.9 253.4,39.1 L264.5,39.1 Z M274.8,30.3 L280.5,30.3 L280.5,33.1 C281,32.4 281.6,31.7 282.4,31.3 C283.8,30.3 286,29.6 287.9,29.6 C290.6,29.6 292.9,30.8 294.1,32.4 C295.6,34.4 295.6,36.9 295.6,40 L295.6,54 L289.9,54 L289.9,41.9 C289.9,40.1 289.9,39 289.7,38.3 C289.2,36.2 287.7,35.1 285.8,35.1 C283.9,35.1 282.2,36.2 281.4,37.8 C280.5,39.6 280.5,42 280.5,43.7 L280.5,54 L274.8,54 L274.8,30.3 L274.8,30.3 Z M307.4,34.4 L307.4,45.1 C307.4,48 307.4,49.3 310.1,49.3 C311,49.3 311.7,49.3 312.5,49 L312.5,53.8 C310.8,54.1 309.6,54.2 308.4,54.2 C307.2,54.2 303.2,54.2 302.1,51.3 C301.7,50.4 301.7,48.8 301.7,46.5 L301.7,34.4 L298.2,34.4 L298.2,30.3 L301.7,30.3 L301.7,21.9 L307.4,21.9 L307.4,30.3 L312.5,30.3 L312.5,34.4 L307.4,34.4 L307.4,34.4 Z M326.4,54.7 C319,54.7 314.1,49.3 314.1,42.1 C314.1,34.9 319.1,29.6 326.2,29.6 C332.8,29.6 338.5,34.2 338.5,42.1 C338.5,49.4 333.6,54.7 326.4,54.7 Z M326.1,34.7 C322.5,34.7 320,37.5 320,41.9 C320,46.8 323,49.5 326.4,49.5 C330.5,49.5 332.6,45.9 332.5,42 C332.4,38 330.1,34.7 326.1,34.7 Z M348.2,30.3 L348.2,33.7 C348.9,32.5 350.5,29.7 355.8,29.8 L355.8,35.6 C354.6,35.6 352.4,35.7 350.7,37 C348.3,38.8 348.2,41.3 348.2,45.2 L348.2,54 L342.7,54 L342.7,30.3 L348.2,30.3 Z M14.2,7.2 C14.2,11.1 11.1,14.2 7.2,14.2 C3.3,14.2 0.2,11.1 0.2,7.2 C0.2,3.4 3.3,0.2 7.2,0.2 C11.1,0.2 14.2,3.3 14.2,7.2 L14.2,7.2 Z M68.2,7.2 C68.2,11.1 65.1,14.2 61.2,14.2 C57.3,14.2 54.2,11.1 54.2,7.2 C54.2,3.4 57.3,0.2 61.2,0.2 C65.1,0.2 68.2,3.3 68.2,7.2 Z M34.1,35.9 C42.2,26.6 52.8,19.6 64.9,15.8 L64.9,74.2 L56.8,74.2 L56.8,28 C50,31.7 44,36.6 39.2,42.5 C45.4,51.7 49.4,62.6 50.4,74.3 L17.9,74.3 C18.8,62.9 22.7,52 29.1,42.5 C24.1,36.6 18.2,31.7 11.4,28 L11.4,74.2 L3.3,74.2 L3.3,15.8 C15.3,19.5 26,26.6 34.1,35.9 Z M40.8,66.1 C39.4,60.3 37.2,54.8 34.1,49.7 C31.1,54.8 28.8,60.3 27.4,66.1 L40.8,66.1 Z" id="Shape" fill="#048CFF"></path>
                </g>
            </g>
        </g>
    </g>
</svg>