<svg width="74" height="37" viewBox="0 0 74 37" fill="none" xmlns="http://www.w3.org/2000/svg">
<path d="M24.8064 0.427979L9.47057 6.5882C3.95255 8.81637 0.584402 13.7314 0.0827637 19.1052C0.0827637 19.1052 0.0827637 19.1052 0.0827637 19.0397L5.45746 20.9402L11.0471 22.9062L16.8518 20.547C25.0214 17.3358 28.6045 8.29209 24.8064 0.427979Z" fill="#618ACC"/>
<path d="M1.8027 27.3627C2.9493 29.6564 4.95585 31.5569 7.75069 32.5399L18.3568 36.3409C20.5783 31.1637 17.7835 25.3967 12.1221 23.3651L11.1188 22.9719L1.58771 26.7729C1.65937 26.9695 1.73103 27.1661 1.8027 27.3627Z" fill="#B7CEEC"/>
<path d="M5.45744 20.94L0.0827488 19.0396C0.0827488 19.0396 0.0827488 19.0396 0.0827488 19.1051C-0.0605764 19.8915 0.0110862 20.8745 0.0827488 21.792C0.154411 22.3818 0.226074 22.9716 0.369399 23.5614C0.584387 24.6755 1.01436 25.7896 1.44434 26.7071L10.9755 22.9061L5.45744 20.94Z" fill="#2E55A5"/>
<path fill-rule="evenodd" clip-rule="evenodd" d="M36.6992 17.3634C38.6437 17.3634 40.4492 17.7587 41.977 18.5494C43.5742 19.34 44.8242 20.526 45.727 21.9755C46.6298 23.425 47.1159 25.0721 47.1159 26.917C47.1853 28.6959 46.6992 30.409 45.8659 31.8585C45.0326 33.308 43.7826 34.4939 42.2548 35.3505C40.727 36.207 38.9909 36.6682 37.0465 36.6682C35.102 36.6682 33.3659 36.2729 31.7687 35.4822C30.1714 34.6916 28.9214 33.5056 28.0187 32.0561C27.1159 30.6066 26.6298 28.9595 26.6298 27.1146C26.6298 25.3357 27.0464 23.6226 27.8798 22.1731C28.7131 20.7236 29.9631 19.5377 31.4909 18.6811C33.0187 17.8246 34.7548 17.3634 36.6992 17.3634ZM41.4214 29.7501C41.8381 28.9595 42.0464 28.0371 42.0464 26.9829C42.0464 25.9287 41.8381 25.0063 41.352 24.2157C40.9353 23.425 40.2409 22.832 39.477 22.3708C38.7131 21.9096 37.8103 21.712 36.8381 21.712C35.8658 21.712 34.9631 21.9755 34.1992 22.4367C33.4353 22.8979 32.8103 23.5568 32.3936 24.3474C31.9769 25.1381 31.7686 26.0605 31.7686 27.1147C31.7686 28.1688 31.9769 29.0913 32.4631 29.8819C32.8797 30.6725 33.5742 31.2655 34.3381 31.7267C35.102 32.1879 36.0047 32.3856 36.977 32.3856C37.9492 32.3856 38.852 32.122 39.6159 31.6608C40.3797 31.1996 41.0047 30.5408 41.4214 29.7501Z" fill="#1E2B37"/>
<path d="M55.6575 24.9402L51.0047 17.495L45.5881 17.5609L53.0186 29.4864L53.0881 36.2068L58.1575 36.1409L58.0186 29.4864L65.102 17.2974L60.102 17.3632L55.6575 24.9402Z" fill="#1E2B37"/>
<path d="M72.3937 29.6841L73.0881 17.1656L67.3937 17.2315L68.4353 29.75L72.3937 29.6841Z" fill="#1E2B37"/>
<path d="M72.5326 31.4632C71.977 30.9361 71.2826 30.7384 70.4493 30.7384C69.6159 30.7384 68.9215 31.0019 68.3659 31.529C67.8104 32.0561 67.5326 32.715 67.602 33.4397C67.602 34.1645 67.8798 34.8234 68.4354 35.3505C68.9909 35.8775 69.6854 36.1411 70.5187 36.1411C71.352 36.1411 72.0465 35.8775 72.5326 35.2846C73.0881 34.7575 73.3659 34.0986 73.3659 33.308C73.3659 32.6491 73.0881 31.9902 72.5326 31.4632Z" fill="#1E2B37"/>
</svg>
