<svg width="56" height="56" viewBox="0 0 56 56" fill="none" xmlns="http://www.w3.org/2000/svg">
<rect width="55.9999" height="56" rx="8" fill="#F0F1F2"/>
<path fill-rule="evenodd" clip-rule="evenodd" d="M44.7618 25.7499L30.2501 11.2492C29.6361 10.6684 29.0732 10 28 10C26.9268 10 26.3639 10.6684 25.7499 11.2492L11.2381 25.7499C10.5357 26.4812 10 27.0144 10 28C10 29.2671 10.972 30.2501 12.2501 30.2501H14.5002V43.7499C14.5002 44.9872 15.513 46 16.7503 46H23.6481C23.674 43.3579 23.6882 40.664 23.6789 40.5411C23.663 40.3309 21.2849 36.661 19.4441 33.8203C19.3132 33.6183 17.4179 30.6049 17.3763 30.6049C16.4041 28.9423 16.4162 28.5377 17.6862 26.7013L19.6914 23.7145C19.6979 23.7048 19.7036 23.6966 19.7105 23.6872C19.8208 23.5365 20.0267 23.2236 20.2614 22.8668C20.7223 22.1659 21.3015 21.2851 21.3339 21.2765C21.3657 21.268 24.4047 22.6367 26.1451 23.4205C26.6595 23.6521 27.0637 23.8341 27.243 23.913C27.288 23.9328 27.3234 23.9475 27.4806 24.0154C27.7728 24.1418 28.2107 24.3313 28.575 24.4999C28.9067 24.6534 29.0912 24.9927 29.0397 25.3545C29.0154 25.5253 28.9854 25.7031 28.9501 25.8668C28.8959 26.1187 28.8386 26.3208 28.7907 26.3601C28.7215 26.4168 27.0144 26.8588 25.9644 27.1307C25.5967 27.2259 25.3074 27.3008 25.191 27.3333C25.0979 27.3594 25.0221 27.3839 24.9569 27.405C24.7934 27.4577 24.7411 27.4746 24.6195 27.3658C24.5632 27.3154 24.5164 27.2747 24.4673 27.2319V27.2309C24.3304 27.1117 24.1781 26.979 24.0725 26.8691C24.0208 26.8152 23.9705 26.775 23.9066 26.7363C23.9011 26.733 23.896 26.7298 23.8912 26.727C23.8136 26.6797 23.8027 26.6731 23.6653 26.6391L23.324 26.5547L23.3865 27.0272L23.4438 27.0721C23.4464 27.352 23.5041 27.4955 23.5457 27.599C23.5742 27.6698 23.5778 27.6788 22.9224 28.3842C22.7369 28.5837 22.666 28.8378 22.7213 29.1045C22.7766 29.3713 22.9427 29.5762 23.1923 29.6856C23.2918 29.7292 23.3983 29.7753 23.5092 29.8229C24.3164 30.1692 25.375 30.6065 25.5971 30.6936C25.7867 30.768 25.9242 30.8304 26.0312 30.8789C26.2134 30.9617 26.3194 31.0098 26.4688 31.024C26.6623 31.0425 26.853 30.9918 27.3088 30.8706L27.3629 30.8562C27.4268 30.8393 27.4973 30.8178 27.5614 30.7983C27.7562 30.7391 27.8672 30.7054 28.0789 30.8125C28.9073 31.2318 29.885 31.5949 30.8223 31.9429C31.0437 32.0251 31.262 32.1062 31.584 32.2288C31.9123 32.3539 32.3236 32.73 32.6813 33.0571C32.815 33.1794 32.9419 33.2955 33.0428 33.3807L33.0456 33.3826L33.9045 34.0892C34.2077 34.3386 34.6342 34.3393 34.9382 34.0909C38.2788 31.3605 38.918 31.0322 38.2583 33.6412C38.1118 34.2609 37.5436 37.6136 37.2302 38.1817C36.9375 38.712 35.1922 40.5082 34.7146 41.1304C34.5495 41.3455 34.4216 41.5501 34.4071 41.6813C34.4056 41.6955 34.4103 43.7715 34.4128 46H39.2497C40.487 46 41.4998 44.9872 41.4998 43.7499V30.2501H43.7499C45.028 30.2501 46 29.2671 46 28C46 27.0144 45.4642 26.4812 44.7618 25.7499ZM23.3426 21.1789L25.643 22.2657C26.0139 22.4409 26.4507 22.317 26.6744 21.9732L27.3939 20.8673L27.3949 20.8654L27.4455 20.7895C27.6659 20.4587 27.8967 20.1126 28.1142 19.7629C28.3347 19.4083 28.2541 18.9497 27.9258 18.6916C27.7165 18.5271 27.4884 18.3503 27.2923 18.1985C27.0837 18.0369 26.9105 17.9027 26.8229 17.8308C26.7483 17.7694 26.3225 17.4283 25.8928 17.0927C25.7047 16.9457 25.4865 16.8911 25.2513 16.9321C25.0161 16.973 24.8292 17.0982 24.7018 17.3001L23.8486 18.6522C23.7716 18.7763 23.6958 18.9053 23.6191 19.0355C23.4605 19.3052 23.2985 19.5807 23.1203 19.8327C23.0941 19.8698 23.0575 19.9231 23.0146 19.9868C22.8772 20.1909 22.8396 20.4209 22.9048 20.6582C22.9701 20.8954 23.1201 21.0739 23.3426 21.1789ZM38.0033 26.6327C37.6565 26.356 37.1504 26.4082 36.8673 26.7499C36.6312 27.035 36.3554 27.3638 36.0772 27.6955C35.5038 28.3791 34.9201 29.0752 34.6658 29.4076L34.6621 29.4132L33.2539 31.154C33.2412 31.1697 33.2308 31.1836 33.2192 31.2002C33.1195 31.3431 33.0396 31.501 32.9987 31.6683C32.9617 31.8193 32.9559 31.9809 32.9957 32.15C33.0484 32.3737 33.0538 32.3785 33.1375 32.4514C33.1671 32.4771 33.1996 32.5062 33.2133 32.5186L33.2143 32.5204L33.7981 33.0547C34.0598 33.2942 34.4278 33.3388 34.7391 33.1687C34.968 33.0438 35.1761 32.8849 35.2974 32.7858C35.3115 32.7743 35.3232 32.7641 35.3365 32.7517L38.8665 29.4723C39.7754 28.6279 39.0468 27.465 38.0033 26.6327ZM27.8503 23.3061C28.4667 23.6038 29.1605 23.9225 29.3814 24.0188L29.4628 24.0537C29.74 24.1722 29.8663 24.2263 29.9161 24.4687C29.9454 24.6119 29.9172 24.783 29.8655 25.0973C29.8455 25.2186 29.8213 25.3652 29.7905 25.5758C29.7664 25.7402 29.7488 25.8805 29.7346 25.9937C29.7043 26.2348 29.6883 26.3618 29.6347 26.4868C29.5721 26.6329 29.486 26.719 29.3046 26.9006C29.2589 26.9463 29.2061 26.9991 29.1438 27.063C28.9065 27.306 27.4444 27.648 26.5744 27.8514C26.3351 27.9074 26.1404 27.9529 26.0517 27.9761C25.9603 28.0001 25.8257 28.0309 25.6648 28.0676C25.5724 28.0887 25.4708 28.1119 25.3645 28.1366C25.0164 28.2177 24.7703 28.5003 24.7378 28.8563C24.7052 29.2123 24.8961 29.5347 25.2237 29.6776C25.3001 29.7109 25.3759 29.7453 25.4556 29.7815C25.8971 29.9821 26.462 30.2387 26.8103 30.1973C26.9361 30.1823 27.0772 30.142 27.2038 30.0882C27.3214 30.0382 27.4211 29.9799 27.4757 29.9241C27.5895 29.8079 27.9718 29.3107 28.3728 28.7739C28.8591 28.1229 29.3649 27.424 29.4521 27.2768C29.573 27.0728 29.7173 26.832 29.8961 26.534L29.9019 26.5243C30.0812 26.2252 30.2528 25.9639 30.421 25.7077H30.4219C30.5573 25.5016 30.6905 25.2986 30.8213 25.0864C30.976 24.8351 31.1456 24.5991 31.3155 24.3625C31.4714 24.1454 31.6278 23.9278 31.7745 23.6929C31.7797 23.6846 31.7843 23.6775 31.7898 23.6693L32.205 23.0528C32.443 22.6995 32.3702 22.2257 32.0372 21.9602L29.9116 20.2653C29.9021 20.2578 29.8939 20.2515 29.8842 20.2444C29.8666 20.2315 29.8492 20.2185 29.8322 20.2055C29.646 20.063 29.4324 20.0101 29.2012 20.0491C28.97 20.0882 28.7857 20.2083 28.6565 20.404L28.1016 21.2451C28.0429 21.3386 27.9421 21.4912 27.8208 21.6744C27.7291 21.8127 27.6257 21.9686 27.5231 22.1251C27.3898 22.3284 27.3543 22.5554 27.4192 22.7897C27.4841 23.024 27.6313 23.2004 27.8503 23.3061ZM36.0476 25.0667L34.0994 23.5534C34.0931 23.5485 34.0877 23.5445 34.0813 23.5398C34.0694 23.5311 34.0563 23.5212 34.0423 23.5104C33.8579 23.3688 33.6468 23.3153 33.4173 23.352C33.1877 23.3887 33.0038 23.5053 32.8727 23.6973L29.1002 29.2231C29.042 29.3086 28.993 29.369 28.9533 29.4185V29.4195C28.8623 29.5332 28.8531 29.5446 28.9094 30.1279C28.9266 30.3064 28.98 30.332 29.1105 30.3948L29.1683 30.4228L30.8337 31.2059C30.8886 31.2317 30.9378 31.2487 30.9969 31.2624C31.2169 31.3132 31.3848 31.3214 31.5396 31.2981C31.7252 31.2701 31.9077 31.1958 32.1408 31.0944C32.2358 31.0532 33.0091 30.0986 33.4235 29.587C33.5471 29.4344 33.6404 29.3191 33.678 29.2753C33.729 29.216 33.8235 29.1078 33.9376 28.9773C34.5091 28.3232 35.609 27.0644 36.2204 26.1705C36.464 25.8143 36.3885 25.3315 36.0476 25.0667Z" fill="#212529" fill-opacity="0.2"/>
</svg>
